P2
#Created by Wolfram Mathematica 7.0
5 5
255
 0  0  0   0  0 
 0 100 100 100 0 
 0 100 250 100 0 
 0 100 100 100 0 
 0   0  0   0  0 
